<svg id="Capa_1" enable-background="new 0 0 511.992 511.992" height="512" viewBox="0 0 511.992 511.992" width="512" xmlns="http://www.w3.org/2000/svg"><g><path d="m495.364 333.939-45.811-25.279 45.815-25.288c10.12-5.587 16.16-15.824 16.157-27.383-.002-11.554-6.044-21.783-16.159-27.362l-45.822-25.286 45.821-25.29c10.117-5.584 16.158-15.816 16.158-27.371s-6.041-21.787-16.158-27.371l-35.104-19.376c-3.623-2.001-8.187-.684-10.189 2.941-2.001 3.626-.684 8.187 2.942 10.189l35.104 19.377c5.265 2.905 8.408 8.229 8.408 14.241s-3.143 11.336-8.408 14.241l-209.26 115.498c-14.315 7.899-31.409 7.899-45.724 0l-209.26-115.499c-5.265-2.905-8.407-8.229-8.407-14.241s3.142-11.336 8.407-14.241l209.263-115.5c14.314-7.908 31.404-7.908 45.721.001l147.902 81.634c3.624 2.001 8.188.684 10.189-2.942s.684-8.187-2.942-10.189l-147.899-81.631c-18.855-10.416-41.368-10.416-60.22-.001l-209.26 115.498c-10.118 5.584-16.158 15.816-16.158 27.371s6.04 21.787 16.158 27.371l45.82 25.29-45.822 25.285c-10.116 5.58-16.158 15.809-16.16 27.363-.003 11.559 6.037 21.796 16.158 27.383l45.815 25.288-45.814 25.28c-10.116 5.59-16.155 15.825-16.155 27.379 0 11.555 6.039 21.791 16.158 27.382l81.115 44.771c1.149.634 2.391.935 3.617.935 2.643 0 5.205-1.4 6.572-3.877 2.001-3.625.684-8.187-2.942-10.189l-81.112-44.769c-5.266-2.91-8.411-8.238-8.41-14.253 0-6.015 3.144-11.343 8.407-14.251l54.084-29.843 147.923 81.647c9.43 5.206 19.771 7.808 30.115 7.808 10.342 0 20.688-2.603 30.114-7.807l147.925-81.648 54.081 29.842c5.267 2.909 8.411 8.237 8.411 14.252s-3.144 11.343-8.408 14.251l-209.26 115.488c-14.313 7.898-31.411 7.899-45.733 0l-101.872-56.228c-3.626-2-8.188-.683-10.189 2.941-2.002 3.626-.684 8.187 2.941 10.189l101.873 56.23c9.43 5.201 19.773 7.801 30.115 7.801s20.685-2.601 30.11-7.802l209.263-115.489c10.116-5.589 16.155-15.825 16.155-27.38.001-11.555-6.039-21.79-16.159-27.381zm-216.502 51.804c-14.317 7.905-31.414 7.905-45.734 0l-209.256-115.5c-5.267-2.908-8.41-8.235-8.409-14.25.001-6.011 3.143-11.332 8.407-14.235l54.096-29.851 147.922 81.643c9.426 5.202 19.767 7.803 30.108 7.803s20.682-2.601 30.109-7.803l147.921-81.643 54.097 29.852c5.263 2.902 8.405 8.223 8.406 14.234.002 6.015-3.142 11.343-8.408 14.25z"/></g></svg>