<svg width="512" height="512" viewBox="0 0 512 512" fill="none" xmlns="http://www.w3.org/2000/svg">
<g clip-path="url(#clip0)">
<path d="M437.641 75.6166C434.711 72.6679 429.946 72.6508 426.995 75.5794C424.046 78.5091 424.03 83.2754 426.958 86.2251C471.301 130.875 496.052 189.864 496.903 252.652C465.756 254.728 441.046 280.713 441.046 312.376C441.046 334.206 452.705 353.866 471.311 364.409C459.893 387.031 444.812 407.934 426.373 426.373C392.899 459.848 351.304 482.243 306.035 491.754C297.921 471.565 278.256 457.989 255.998 457.989C233.743 457.989 214.086 471.568 205.973 491.757C160.7 482.245 119.102 459.85 85.6249 426.373C40.1177 380.865 15.0547 320.358 15.0547 256C15.0547 215.917 24.78 177.331 43.1075 142.93C56.459 148.72 71.0249 151.764 85.656 151.764C98.2869 151.764 110.654 149.579 122.412 145.269C126.316 143.839 128.32 139.515 126.89 135.611C125.46 131.708 121.135 129.703 117.232 131.134C107.138 134.834 96.5144 136.709 85.657 136.709C73.4607 136.709 61.7251 134.386 50.663 129.8C60.4435 113.953 72.1279 99.1249 85.6269 85.6259C111.55 59.7028 142.346 40.4248 175.942 28.6239C176.912 33.9984 177.41 39.4643 177.41 44.9552C177.41 72.7853 164.98 98.8017 143.307 116.33C140.075 118.945 139.574 123.685 142.188 126.917C143.676 128.757 145.852 129.711 148.046 129.711C149.709 129.711 151.382 129.163 152.775 128.036C177.998 107.634 192.465 77.3519 192.465 44.9552C192.465 37.9207 191.772 30.9173 190.407 24.0523C211.485 18.1268 233.505 15.0547 256 15.0547C310.022 15.0547 361.081 32.5341 403.658 65.6022C406.942 68.1525 411.671 67.5583 414.22 64.2744C416.77 60.9915 416.176 56.2623 412.892 53.712C367.65 18.5734 313.397 0 256 0C187.619 0 123.333 26.6287 74.9802 74.9802C26.6287 123.333 0 187.619 0 256C0 324.38 26.6287 388.667 74.9802 437.019C123.332 485.371 187.619 511.999 256 511.999C324.38 511.999 388.667 485.37 437.019 437.019C485.371 388.667 511.999 324.38 511.999 256C512 187.961 485.592 123.901 437.641 75.6166V75.6166ZM221.247 494.463C227.729 481.538 241.051 473.045 256 473.045C270.949 473.045 284.275 481.536 290.758 494.462C279.344 496.101 267.737 496.945 256 496.945C244.264 496.945 232.659 496.102 221.247 494.463V494.463ZM456.102 312.376C456.102 289.1 473.94 269.918 496.661 267.765C495.28 296.688 488.8 324.674 477.677 350.699C464.378 342.668 456.102 328.291 456.102 312.376V312.376Z" fill="#2C3E50"/>
<path d="M324.86 240.78C324.753 240.777 324.646 240.773 324.538 240.774C320.404 240.774 317.039 244.112 317.012 248.252C316.986 252.375 320.279 255.746 324.389 255.827C324.514 255.831 324.639 255.834 324.765 255.834C360.709 255.834 389.952 226.592 389.952 190.647C389.952 154.703 360.71 125.461 324.765 125.461C288.821 125.461 259.578 154.703 259.578 190.647C259.578 212.973 270.826 233.503 289.667 245.567C293.164 247.807 297.821 246.788 300.065 243.286C302.306 239.785 301.285 235.13 297.784 232.888C283.288 223.606 274.633 207.816 274.633 190.647C274.633 163.005 297.122 140.515 324.765 140.515C352.409 140.515 374.897 163.004 374.897 190.647C374.895 218.258 352.458 240.728 324.86 240.78V240.78Z" fill="#2C3E50"/>
<path d="M156.436 345.593C178.888 345.593 197.152 327.327 197.152 304.877C197.152 282.426 178.886 264.161 156.436 264.161C133.985 264.161 115.72 282.426 115.72 304.877C115.72 327.327 133.984 345.593 156.436 345.593ZM156.436 279.216C170.586 279.216 182.097 290.728 182.097 304.877C182.097 319.026 170.585 330.538 156.436 330.538C142.287 330.538 130.775 319.026 130.775 304.877C130.775 290.728 142.286 279.216 156.436 279.216Z" fill="#2C3E50"/>
<path d="M94.8353 192.268C79.5147 192.268 67.0494 204.732 67.0494 220.054C67.0494 235.376 79.5137 247.84 94.8353 247.84C110.157 247.84 122.621 235.376 122.621 220.054C122.621 204.732 110.156 192.268 94.8353 192.268ZM94.8353 232.784C87.8158 232.784 82.1041 227.073 82.1041 220.053C82.1041 213.032 87.8148 207.322 94.8353 207.322C101.856 207.322 107.567 213.032 107.567 220.053C107.567 227.073 101.855 232.784 94.8353 232.784Z" fill="#2C3E50"/>
<path d="M315.962 422.809C336.821 422.809 353.791 405.84 353.791 384.981C353.791 364.122 336.821 347.152 315.962 347.152C295.103 347.152 278.134 364.122 278.134 384.981C278.134 405.84 295.103 422.809 315.962 422.809V422.809ZM315.962 362.207C328.52 362.207 338.736 372.423 338.736 384.981C338.736 397.538 328.52 407.754 315.962 407.754C303.405 407.754 293.189 397.538 293.189 384.981C293.189 372.423 303.405 362.207 315.962 362.207Z" fill="#2C3E50"/>
<path d="M399.864 305.34C399.864 289.375 386.876 276.385 370.911 276.385C354.946 276.385 341.957 289.374 341.957 305.34C341.957 321.306 354.945 334.294 370.911 334.294C386.876 334.294 399.864 321.305 399.864 305.34ZM357.011 305.34C357.011 297.676 363.246 291.44 370.911 291.44C378.575 291.44 384.809 297.675 384.809 305.34C384.809 313.004 378.575 319.239 370.911 319.239C363.247 319.239 357.011 313.003 357.011 305.34Z" fill="#2C3E50"/>
<path d="M391 190.5C391 226.675 361.675 256 325.5 256C289.325 256 260 226.675 260 190.5C260 154.325 289.325 125 325.5 125C361.675 125 391 154.325 391 190.5Z" fill="#2C3E50"/>
<ellipse cx="156.5" cy="305" rx="40.5" ry="41" fill="#2C3E50"/>
<circle cx="316" cy="385" r="38" fill="#2C3E50"/>
<circle cx="86.5" cy="45.5" r="106.5" fill="#2C3E50"/>
<circle cx="256" cy="513" r="55" fill="#2C3E50"/>
<circle cx="503.5" cy="311.5" r="62.5" fill="#2C3E50"/>
<circle cx="95" cy="220" r="25" fill="#2C3E50"/>
<circle cx="370.5" cy="305.5" r="29.5" fill="#2C3E50"/>
</g>
<defs>
<clipPath id="clip0">
<rect width="512" height="512" fill="white"/>
</clipPath>
</defs>
</svg>
