<svg width="226" height="141" viewBox="0 0 226 141" fill="none" xmlns="http://www.w3.org/2000/svg">
<path d="M183.321 37.6086C170.341 6.4636 134.571 -8.26254 103.425 4.71711C82.1296 13.5918 67.6497 33.7059 65.9905 56.7172C47.9935 59.2061 35.4213 75.8135 37.9102 93.811C40.1625 110.096 54.0907 122.218 70.5303 122.202H183.32C206.68 122.202 225.616 103.265 225.616 79.9053C225.616 56.5459 206.681 37.6086 183.321 37.6086Z" fill="#64B5F6"/>
<path d="M145.724 56.4071C132.745 25.2621 96.9742 10.5359 65.8292 23.5156C44.5335 32.3903 30.0537 52.5044 28.3944 75.5157C10.3974 78.0046 -2.17474 94.612 0.314133 112.61C2.56641 128.894 16.4946 141.016 32.9342 141H145.724C169.084 141 188.02 122.063 188.02 98.7038C188.02 75.3443 169.084 56.4071 145.724 56.4071Z" fill="#BBDEFB"/>
<path fill-rule="evenodd" clip-rule="evenodd" d="M145.173 59.4665C166.936 59.4665 184.605 77.1355 184.605 98.8989C184.605 120.662 166.936 138.331 145.173 138.331C123.41 138.331 105.741 120.662 105.741 98.8989C105.741 77.1355 123.41 59.4665 145.173 59.4665ZM145.173 62.7525C165.122 62.7525 181.319 78.9494 181.319 98.8989C181.319 118.848 165.122 135.045 145.173 135.045C125.223 135.045 109.027 118.848 109.027 98.8989C109.027 78.9494 125.223 62.7525 145.173 62.7525ZM145.173 98.8989H164.889V102.185H141.887V72.6106H145.173V98.8989Z" fill="#64B5F6"/>
</svg>
