<svg width="58" height="48" viewBox="0 0 58 48" fill="none" xmlns="http://www.w3.org/2000/svg">
<path fill-rule="evenodd" clip-rule="evenodd" d="M49.9058 23.4375C54.3612 27.8049 54.4327 34.9679 50.0652 39.4233C45.6978 43.8788 38.5348 43.9502 34.0794 39.5828C29.624 35.2153 29.5526 28.0523 33.92 23.5969C38.2874 19.1415 45.4504 19.0701 49.9058 23.4375ZM49.2464 24.1102C53.3305 28.1136 53.3959 34.6798 49.3925 38.7639C45.3891 42.848 38.8229 42.9135 34.7388 38.91C30.6548 34.9066 30.5893 28.3404 34.5927 24.2564C38.5961 20.1723 45.1623 20.1068 49.2464 24.1102ZM41.9926 31.5101L46.0289 35.4667L45.3695 36.1395L40.6605 31.5234L46.5954 25.4689L47.2681 26.1284L41.9926 31.5101Z" fill="#E490D0"/>
<path d="M49.2544 5.43185C48.1943 5.33204 47.2519 6.1078 47.1503 7.16844C46.9801 8.94796 45.7408 10.4027 44.0596 10.8756C43.9415 10.9089 43.8156 10.8686 43.7393 10.7725C40.8269 7.1017 36.3274 4.74743 31.2775 4.74743H28.9126C28.8092 4.74743 28.7123 4.69753 28.6522 4.61336L26.1919 1.16618C25.5116 0.212915 24.095 0.212915 23.4147 1.16618L20.9543 4.61336C20.8943 4.69743 20.7973 4.74743 20.6939 4.74743H17.4372C16.4357 4.74743 15.4561 4.84067 14.506 5.01777C14.3835 5.04058 14.2591 4.99157 14.1867 4.89017L11.543 1.1859C10.8587 0.227159 9.43171 0.233933 8.75656 1.19915L5.29991 7.65433C4.82717 8.53727 4.39377 9.44083 4.00121 10.3622C3.09028 12.5 2.40218 14.7261 1.94766 17.0052L1.86409 17.4242C1.64973 18.4653 1.53687 19.5435 1.53687 20.6481C1.53687 29.4297 8.65575 36.5486 17.4374 36.5486H28.0183C28.2554 36.5486 28.4882 36.5066 28.7066 36.4266L37.1294 26.3815L46.8017 18.2027C46.8782 17.9071 46.8871 17.5938 46.821 17.2862C46.6213 16.3582 46.3402 15.4605 45.9863 14.6006C45.9243 14.45 45.9957 14.2774 46.1449 14.2121C47.1258 13.7827 48.0227 13.1622 48.7696 12.3817C50.0291 11.0656 50.818 9.3446 50.9911 7.5359C51.0925 6.47546 50.3151 5.53345 49.2544 5.43185V5.43185Z" fill="#EAAADD"/>
<path d="M49.2545 5.43185C48.1943 5.33204 47.2519 6.1078 47.1503 7.16844C46.9801 8.94796 45.7408 10.4027 44.0596 10.8756C43.9416 10.9089 43.8156 10.8686 43.7393 10.7725C40.8269 7.1017 36.3274 4.74743 31.2776 4.74743H28.9126C28.8092 4.74743 28.7123 4.69753 28.6522 4.61336L26.1919 1.16618C25.5116 0.212915 24.095 0.212915 23.4147 1.16618L22.8597 1.94383L24.1882 3.91051C24.5299 4.41623 25.0828 4.74454 25.6917 4.78658C32.8193 5.27795 38.654 10.4663 40.1238 17.2792C40.2673 17.9446 40.0631 18.6377 39.5818 19.119L22.7387 35.9621C22.3632 36.3377 21.8539 36.5486 21.3228 36.5486H28.0183C28.2554 36.5486 28.4882 36.5066 28.7066 36.4266L37.1294 26.3815L46.8017 18.2027C46.8782 17.9071 46.8871 17.5938 46.821 17.2862C46.6213 16.3582 46.3402 15.4605 45.9863 14.6006C45.9243 14.45 45.9957 14.2774 46.145 14.2121C47.1258 13.7827 48.0227 13.1622 48.7697 12.3817C50.0291 11.0656 50.818 9.3446 50.9912 7.5359C51.0926 6.47546 50.3151 5.53345 49.2545 5.43185V5.43185Z" fill="#E490D0"/>
<path d="M21.1197 12.7199C20.7783 12.4843 20.3105 12.5703 20.0753 12.9117C19.8535 13.2333 19.4887 13.4252 19.0993 13.4252C18.7793 13.4252 18.4771 13.2939 18.2561 13.0692V11.861C18.2561 11.4463 17.9199 11.1101 17.5053 11.1101C17.0905 11.1101 16.7543 11.4463 16.7543 11.861V13.0691C16.5332 13.2939 16.231 13.4253 15.911 13.4253C15.5216 13.4253 15.1569 13.2333 14.935 12.9117C14.6996 12.5704 14.2321 12.4844 13.8905 12.72C13.5492 12.9554 13.4633 13.423 13.6988 13.7645C14.2009 14.4925 15.028 14.9271 15.911 14.9271C16.4925 14.9271 17.049 14.7377 17.5053 14.4011C17.9614 14.7377 18.5178 14.9271 19.0994 14.9271C19.9826 14.9271 20.8096 14.4924 21.3116 13.7644C21.547 13.4229 21.4611 12.9552 21.1197 12.7199V12.7199Z" fill="#524798"/>
<path d="M28.7058 36.4245C28.9767 36.3253 29.2264 36.1701 29.4343 35.9622L46.2775 19.119C46.5347 18.8618 46.7118 18.5439 46.8001 18.2023C45.3906 17.7398 43.8853 17.4888 42.3213 17.4888C34.3899 17.4888 27.9603 23.9184 27.9603 31.8498C27.9601 33.4495 28.223 34.9874 28.7058 36.4245Z" fill="#ECF4FF"/>
<path d="M43.3826 17.5282C43.368 17.5435 43.3544 17.5595 43.3394 17.5744L27.9998 32.914C28.0895 34.1327 28.3311 35.3091 28.7057 36.4245C28.9766 36.3253 29.2263 36.1701 29.4342 35.9622L46.2775 19.119C46.5347 18.8618 46.7118 18.5439 46.8001 18.2023C45.7123 17.8455 44.5674 17.6151 43.3826 17.5282V17.5282Z" fill="#DDEAFB"/>
<path d="M11.6876 11.5075C12.242 11.5075 12.6915 11.058 12.6915 10.5036C12.6915 9.94908 12.242 9.4996 11.6876 9.4996C11.1331 9.4996 10.6836 9.94908 10.6836 10.5036C10.6836 11.058 11.1331 11.5075 11.6876 11.5075Z" fill="#524798"/>
<path d="M23.3228 11.5075C23.8773 11.5075 24.3268 11.058 24.3268 10.5036C24.3268 9.94908 23.8773 9.4996 23.3228 9.4996C22.7684 9.4996 22.3189 9.94908 22.3189 10.5036C22.3189 11.058 22.7684 11.5075 23.3228 11.5075Z" fill="#524798"/>
<path d="M34.0585 14.8716C33.9058 14.8716 33.7517 14.8252 33.6186 14.7287C32.8079 14.1415 31.8246 13.783 30.7748 13.6921C29.7245 13.6011 28.6946 13.7854 27.795 14.2247C27.4223 14.407 26.9727 14.2519 26.7908 13.8793C26.6089 13.5067 26.7635 13.057 27.1362 12.8752C28.2804 12.3165 29.5837 12.0814 30.9043 12.1959C32.2253 12.3102 33.4687 12.7655 34.4997 13.5126C34.8356 13.7558 34.9106 14.2254 34.6672 14.5611C34.5203 14.7639 34.291 14.8716 34.0585 14.8716V14.8716Z" fill="#524798"/>
<path d="M27.7029 11.5659C27.4766 11.5659 27.2528 11.464 27.1051 11.2703C26.8537 10.9403 26.9173 10.4692 27.2471 10.2178C28.2387 9.46194 29.4604 8.99976 30.7801 8.88092C32.0912 8.76299 33.405 8.99249 34.579 9.54522C34.9542 9.72183 35.1152 10.1692 34.9386 10.5444C34.7618 10.9195 34.3143 11.0803 33.9393 10.904C33.0065 10.4648 31.9606 10.2827 30.9147 10.3767C29.8771 10.47 28.9237 10.8281 28.1575 11.4122C28.0215 11.5158 27.8616 11.5659 27.7029 11.5659V11.5659Z" fill="#524798"/>
<path d="M0.951773 14.8716C0.719285 14.8716 0.489984 14.7639 0.34306 14.5611C0.0998141 14.2253 0.17492 13.7558 0.510603 13.5125C1.54186 12.7655 2.78508 12.3103 4.1061 12.1959C5.42672 12.0814 6.72991 12.3164 7.87413 12.8752C8.24687 13.057 8.40146 13.5067 8.21947 13.8793C8.03759 14.2521 7.58775 14.4068 7.21531 14.2247C6.31564 13.7856 5.28528 13.6015 4.2355 13.6921C3.18571 13.783 2.20227 14.1414 1.39165 14.7288C1.25857 14.8252 1.10447 14.8716 0.951773 14.8716V14.8716Z" fill="#524798"/>
<path d="M7.30755 11.5659C7.14887 11.5659 6.9889 11.5158 6.85303 11.4122C6.08664 10.8281 5.13317 10.4701 4.09584 10.3767C3.04935 10.2827 2.00385 10.4647 1.07101 10.904C0.695976 11.0804 0.248331 10.9197 0.0717241 10.5444C-0.104883 10.1692 0.0560854 9.72183 0.431314 9.54512C1.60541 8.99249 2.91896 8.76239 4.23042 8.88092C5.54994 8.99976 6.77165 9.46204 7.76326 10.2178C8.09317 10.4692 8.15672 10.9403 7.9053 11.2702C7.75758 11.464 7.53386 11.5659 7.30755 11.5659V11.5659Z" fill="#524798"/>
<path d="M31.0217 33.7627C30.6412 33.7627 30.315 33.4746 30.2757 33.0879C30.234 32.6795 30.2129 32.2629 30.2129 31.8497C30.2129 31.7293 30.2147 31.6092 30.2182 31.4897C30.2307 31.0752 30.5806 30.7498 30.991 30.7612C31.4055 30.7736 31.7316 31.1195 31.7194 31.534C31.7163 31.6389 31.7147 31.7441 31.7147 31.8497C31.7147 32.2123 31.7333 32.5776 31.7697 32.9355C31.8118 33.3481 31.5114 33.7166 31.0988 33.7587C31.0728 33.7614 31.0471 33.7627 31.0217 33.7627V33.7627ZM31.6061 28.8331C31.5232 28.8331 31.4389 28.8193 31.3563 28.7901C30.9653 28.6522 30.76 28.2234 30.8978 27.8323C31.0746 27.3309 31.2871 26.8363 31.5292 26.362C31.7175 25.9927 32.1697 25.846 32.5394 26.0347C32.9087 26.2231 33.0554 26.6754 32.8667 27.0449C32.6548 27.4601 32.4689 27.893 32.3142 28.3317C32.2054 28.6401 31.9156 28.8331 31.6061 28.8331ZM34.2419 24.6261C34.0514 24.6261 33.8607 24.5541 33.7144 24.4096C33.4192 24.1183 33.4162 23.6427 33.7074 23.3477C34.0811 22.9692 34.4832 22.612 34.9028 22.2858C35.2301 22.0314 35.702 22.0903 35.9565 22.4178C36.211 22.7453 36.1518 23.217 35.8244 23.4715C35.4565 23.7575 35.1038 24.0708 34.7763 24.4027C34.6294 24.5515 34.4357 24.6261 34.2419 24.6261V24.6261ZM38.4149 21.9357C38.109 21.9357 37.8216 21.7474 37.7099 21.4437C37.5669 21.0544 37.7665 20.6229 38.1558 20.4798C38.6558 20.2962 39.1728 20.1445 39.6925 20.029C40.0972 19.939 40.4984 20.1945 40.5883 20.5993C40.6783 21.0041 40.423 21.4051 40.0181 21.4951C39.5634 21.5961 39.1111 21.7288 38.6736 21.8896C38.5884 21.9209 38.5008 21.9357 38.4149 21.9357V21.9357Z" fill="#EAAADD"/>
<path d="M44.9851 20.036C44.4666 19.9194 43.9347 19.8366 43.4041 19.7893C42.9922 19.7538 42.6264 20.0578 42.5897 20.471C42.553 20.884 42.8581 21.2486 43.2713 21.2854C43.5204 21.3075 43.7697 21.3394 44.0173 21.3791L45.246 20.1504C45.1693 20.0974 45.0816 20.0577 44.9851 20.036V20.036Z" fill="#EAAADD"/>
</svg>
