<svg width="152" height="116" viewBox="0 0 152 116" fill="none" xmlns="http://www.w3.org/2000/svg">
<path d="M46.3032 38.2396H57.6599C61.9023 30.6773 69.1526 24.9433 77.8546 22.5597C76.1039 18.4295 71.9233 15.5221 67.0427 15.5221C65.8225 15.5221 64.6472 15.7047 63.5425 16.0408C63.5484 15.8683 63.5562 15.6961 63.5562 15.5221C63.5562 7.08633 56.516 0.246326 47.8336 0.246326C40.3455 0.246326 34.0856 5.33248 32.5023 12.1422C31.5618 11.8376 30.5584 11.6709 29.5131 11.6709C26.2967 11.6709 23.4574 13.2355 21.7548 15.6236C20.8048 15.3857 19.8073 15.2567 18.7804 15.2567C12.2491 15.2567 6.95465 20.4014 6.95465 26.7479C6.95465 33.0932 12.2494 38.2391 18.7804 38.2391H37.6876" fill="#9FDEF7"/>
<path d="M110.894 31.2842C104.817 24.9689 96.1668 21.0213 86.5676 21.0213C70.712 21.0213 57.4541 31.794 54.1006 46.2156C52.1104 45.5706 49.9844 45.2158 47.7718 45.2158C40.9594 45.2158 34.948 48.5302 31.3424 53.5875C29.3299 53.0824 27.2194 52.811 25.0439 52.811C11.2124 52.811 0 63.7056 0 77.1451C0 90.5839 11.2124 101.48 25.0439 101.48H52.6566C52.7148 93.2084 59.6299 86.5209 68.1553 86.5209C69.7721 86.5209 71.331 86.7618 72.7964 87.2081C72.7896 86.9802 72.7789 86.7517 72.7789 86.5209C72.7789 75.3324 82.1133 66.2623 93.6279 66.2623C103.556 66.2623 111.859 73.0085 113.959 82.0385C115.205 81.6344 116.535 81.4126 117.921 81.4126C122.186 81.4126 125.952 83.4878 128.209 86.6554C129.469 86.3386 130.791 86.1684 132.153 86.1684C137.862 86.1684 142.857 89.1335 145.6 93.5637C149.577 89.2965 152 83.6366 152 77.4272C152 64.1418 140.917 53.3741 127.245 53.3741C124.663 53.3741 122.174 53.7586 119.834 54.4711C119.846 54.1068 119.863 53.7416 119.863 53.3741C119.863 47.9418 118.485 42.8224 116.049 38.327" fill="#BEEAFC"/>
<path d="M26.5532 52.856C26.0538 52.8266 25.5509 52.8107 25.0439 52.8107C11.2124 52.8104 0 63.7053 0 77.1448C0 90.5836 11.2124 101.48 25.0439 101.48H52.6566C52.6747 98.8841 53.3691 96.4449 54.5756 94.3192C40.9226 84.1097 30.8635 69.5911 26.5532 52.856Z" fill="#AEE4FF"/>
<path d="M24.2292 34.4769C24.2292 26.584 25.4785 18.9756 27.7914 11.8246C25.2971 12.272 23.1465 13.6728 21.7551 15.6239C20.8051 15.386 19.8076 15.257 18.7807 15.257C12.2494 15.257 6.9549 20.4017 6.9549 26.7482C6.9549 33.0935 12.2497 38.2393 18.7807 38.2393H24.3257C24.2628 36.9926 24.2292 35.7387 24.2292 34.4769Z" fill="#83D4ED"/>
<path fill-rule="evenodd" clip-rule="evenodd" d="M47.9776 0.871674C56.1793 0.871674 62.838 7.37796 62.838 15.3919C62.838 23.4059 56.1793 29.9122 47.9776 29.9122C39.776 29.9122 33.1173 23.4059 33.1173 15.3919C33.1173 7.37796 39.776 0.871674 47.9776 0.871674ZM47.9776 2.0817C55.4957 2.0817 61.5996 8.0459 61.5996 15.3919C61.5996 22.738 55.4957 28.7022 47.9776 28.7022C40.4596 28.7022 34.3557 22.738 34.3557 15.3919C34.3557 8.0459 40.4596 2.0817 47.9776 2.0817ZM47.9776 15.3919H55.4078V16.602H46.7393V5.71176H47.9776V15.3919Z" fill="#E4F2F9"/>
<path d="M132.153 85.5246C130.791 85.5246 129.469 85.6942 128.21 86.0115C125.952 82.8436 122.187 80.7687 117.921 80.7687C116.535 80.7687 115.205 80.9905 113.959 81.3947C111.859 72.3644 103.557 65.6184 93.6282 65.6184C82.1136 65.6184 72.7792 74.6885 72.7792 85.8771C72.7792 86.1078 72.7896 86.3363 72.7967 86.5642C71.3313 86.1179 69.7724 85.8771 68.1556 85.8771C59.5952 85.8771 52.6552 92.6193 52.6552 100.939C52.6552 109.257 59.5955 116 68.1556 116H114.566H123.179H132.154C140.815 116 147.837 109.178 147.837 100.762C147.836 92.3464 140.815 85.5246 132.153 85.5246Z" fill="#E4F2F9"/>
<path d="M84.6863 81.6402C84.6863 76.2035 85.8738 71.0369 88.0068 66.3687C79.2238 68.7534 72.7786 76.5811 72.7786 85.8765C72.7786 86.1073 72.789 86.3357 72.7961 86.5636C71.3307 86.1174 69.7718 85.8765 68.155 85.8765C59.5946 85.8765 52.6545 92.6187 52.6545 100.939C52.6545 109.257 59.5949 115.999 68.155 115.999H107.544C94.0682 110.1 84.6863 96.9344 84.6863 81.6402Z" fill="#D7EDF9"/>
</svg>
