<svg width="238" height="157" viewBox="0 0 238 157" fill="none" xmlns="http://www.w3.org/2000/svg">
<path d="M18.4958 31.7911L12.6549 30.8976L10.0369 25.3128C9.84133 24.8957 9.15812 24.8957 8.96258 25.3128L6.34533 30.8976L0.50441 31.7911C0.0246598 31.8649 -0.166924 32.4492 0.169535 32.7941L4.41287 37.15L3.40983 43.308C3.32987 43.7972 3.85158 44.1643 4.28304 43.9241L9.50012 41.0365L14.7172 43.9249C15.1447 44.1627 15.6712 43.8028 15.5904 43.3088L14.5874 37.1508L18.8307 32.7949C19.1672 32.4492 18.9748 31.8649 18.4958 31.7911V31.7911Z" fill="#F29C1F"/>
<path d="M227.496 100.791L221.655 99.8976L219.037 94.3128C218.841 93.8957 218.158 93.8957 217.963 94.3128L215.345 99.8976L209.504 100.791C209.025 100.865 208.833 101.449 209.17 101.794L213.413 106.15L212.41 112.308C212.33 112.797 212.852 113.164 213.283 112.924L218.5 110.037L223.717 112.925C224.145 113.163 224.671 112.803 224.59 112.309L223.587 106.151L227.831 101.795C228.167 101.449 227.975 100.865 227.496 100.791V100.791Z" fill="#FFC107"/>
<path d="M195.496 20.7911L189.655 19.8976L187.037 14.3128C186.841 13.8957 186.158 13.8957 185.963 14.3128L183.345 19.8976L177.504 20.7911C177.025 20.8649 176.833 21.4492 177.17 21.7941L181.413 26.15L180.41 32.308C180.33 32.7972 180.852 33.1643 181.283 32.9241L186.5 30.0365L191.717 32.9249C192.145 33.1627 192.671 32.8028 192.59 32.3088L191.587 26.1508L195.831 21.7949C196.167 21.4492 195.975 20.8649 195.496 20.7911V20.7911Z" fill="#FCD439"/>
<path d="M67.4958 131.791L61.6549 130.898L59.0369 125.313C58.8413 124.896 58.1581 124.896 57.9626 125.313L55.3453 130.898L49.5044 131.791C49.0247 131.865 48.8331 132.449 49.1695 132.794L53.4129 137.15L52.4098 143.308C52.3299 143.797 52.8516 144.164 53.283 143.924L58.5001 141.037L63.7172 143.925C64.1447 144.163 64.6712 143.803 64.5904 143.309L63.5874 137.151L67.8307 132.795C68.1672 132.449 67.9748 131.865 67.4958 131.791V131.791Z" fill="#FFC107"/>
<path d="M13.6285 93.004L9.32465 92.3456L7.39557 88.2305C7.25148 87.9232 6.74807 87.9232 6.60399 88.2305L4.67549 92.3456L0.371669 93.004C0.0181703 93.0583 -0.122996 93.4889 0.12492 93.743L3.25158 96.9526L2.5125 101.49C2.45358 101.851 2.838 102.121 3.15591 101.944L7.00007 99.8164L10.8442 101.945C11.1592 102.12 11.5471 101.855 11.4876 101.491L10.7486 96.9532L13.8752 93.7436C14.1231 93.4889 13.9814 93.0583 13.6285 93.004V93.004Z" fill="#F8DD8D"/>
<path d="M170.628 95.004L166.325 94.3456L164.396 90.2305C164.251 89.9232 163.748 89.9232 163.604 90.2305L161.675 94.3456L157.372 95.004C157.018 95.0583 156.877 95.4889 157.125 95.743L160.252 98.9526L159.512 103.49C159.454 103.851 159.838 104.121 160.156 103.944L164 101.816L167.844 103.945C168.159 104.12 168.547 103.855 168.488 103.491L167.749 98.9532L170.875 95.7436C171.123 95.4889 170.981 95.0583 170.628 95.004V95.004Z" fill="#FFC107"/>
<path d="M140.628 5.00399L136.325 4.3456L134.396 0.230468C134.251 -0.0768227 133.748 -0.0768227 133.604 0.230468L131.675 4.3456L127.372 5.00399C127.018 5.05832 126.877 5.48888 127.125 5.74301L130.252 8.95262L129.512 13.4901C129.454 13.8506 129.838 14.1211 130.156 13.9441L134 11.8164L137.844 13.9446C138.159 14.1199 138.547 13.8547 138.488 13.4907L137.749 8.95321L140.875 5.74359C141.123 5.48888 140.981 5.05832 140.628 5.00399V5.00399Z" fill="#FFC107"/>
<path d="M187.628 131.004L183.325 130.346L181.396 126.23C181.251 125.923 180.748 125.923 180.604 126.23L178.675 130.346L174.372 131.004C174.018 131.058 173.877 131.489 174.125 131.743L177.252 134.953L176.512 139.49C176.454 139.851 176.838 140.121 177.156 139.944L181 137.816L184.844 139.945C185.159 140.12 185.547 139.855 185.488 139.491L184.749 134.953L187.875 131.744C188.123 131.489 187.981 131.058 187.628 131.004V131.004Z" fill="#F29C1F"/>
<path d="M61.6285 11.004L57.3246 10.3456L55.3956 6.23047C55.2515 5.92318 54.7481 5.92318 54.604 6.23047L52.6755 10.3456L48.3717 11.004C48.0182 11.0583 47.877 11.4889 48.1249 11.743L51.2516 14.9526L50.5125 19.4901C50.4536 19.8506 50.838 20.1211 51.1559 19.9441L55.0001 17.8164L58.8442 19.9446C59.1592 20.1199 59.5471 19.8547 59.4876 19.4907L58.7486 14.9532L61.8752 11.7436C62.1231 11.4889 61.9814 11.0583 61.6285 11.004V11.004Z" fill="#FFC107"/>
<path d="M45.7612 52.2169L42.9944 51.7936L41.7543 49.1482C41.6617 48.9506 41.338 48.9506 41.2454 49.1482L40.0057 51.7936L37.2389 52.2169C37.0117 52.2518 36.9209 52.5286 37.0803 52.6919L39.0903 54.7553L38.6152 57.6722C38.5773 57.9039 38.8244 58.0778 39.0288 57.964L41.5 56.5962L43.9713 57.9644C44.1738 58.0771 44.4232 57.9066 44.3849 57.6726L43.9098 54.7556L45.9198 52.6923C46.0792 52.5286 45.988 52.2518 45.7612 52.2169V52.2169Z" fill="#FFC107"/>
<path d="M54.7612 98.2169L51.9944 97.7936L50.7543 95.1482C50.6617 94.9506 50.338 94.9506 50.2454 95.1482L49.0057 97.7936L46.2389 98.2169C46.0117 98.2518 45.9209 98.5286 46.0803 98.6919L48.0903 100.755L47.6152 103.672C47.5773 103.904 47.8244 104.078 48.0288 103.964L50.5 102.596L52.9713 103.964C53.1738 104.077 53.4232 103.907 53.3849 103.673L52.9098 100.756L54.9198 98.6923C55.0792 98.5286 54.988 98.2518 54.7612 98.2169V98.2169Z" fill="#805333"/>
<path d="M237.761 38.2169L234.994 37.7936L233.754 35.1482C233.662 34.9506 233.338 34.9506 233.245 35.1482L232.006 37.7936L229.239 38.2169C229.012 38.2518 228.921 38.5286 229.08 38.6919L231.09 40.7553L230.615 43.6722C230.577 43.9039 230.824 44.0778 231.029 43.964L233.5 42.5962L235.971 43.9644C236.174 44.0771 236.423 43.9066 236.385 43.6726L235.91 40.7556L237.92 38.6923C238.079 38.5286 237.988 38.2518 237.761 38.2169V38.2169Z" fill="#805333"/>
<path d="M212.761 65.2169L209.994 64.7936L208.754 62.1482C208.662 61.9506 208.338 61.9506 208.245 62.1482L207.006 64.7936L204.239 65.2169C204.012 65.2518 203.921 65.5286 204.08 65.6919L206.09 67.7553L205.615 70.6722C205.577 70.9039 205.824 71.0778 206.029 70.964L208.5 69.5962L210.971 70.9644C211.174 71.0771 211.423 70.9066 211.385 70.6726L210.91 67.7556L212.92 65.6923C213.079 65.5286 212.988 65.2518 212.761 65.2169V65.2169Z" fill="#CB8252"/>
<path d="M151.862 28C154.318 28 156.31 29.9929 156.31 32.4482C156.31 34.9035 154.317 36.8965 151.862 36.8965V72.4826C151.862 88.6522 140.359 102.126 125.095 105.186C125.121 105.182 125.146 105.18 125.172 105.175V114.741H127.397V125.862H131.845C134.3 125.862 136.293 127.855 136.293 130.31V134.758H100.707V130.31C100.707 127.855 102.7 125.862 105.155 125.862H109.603V114.741H111.828V105.175C111.854 105.18 111.879 105.182 111.905 105.186C96.6411 102.126 85.1379 88.6522 85.1379 72.4826V36.8965C82.6823 36.8965 80.6896 34.9035 80.6896 32.4482C80.6896 29.9929 82.6826 28 85.1379 28H151.862Z" fill="#F0C419"/>
<path d="M72.0625 48.0172V54.6896C72.0625 65.0275 77.4515 74.3221 86.119 79.4798C85.6453 77.1644 85.4072 74.8247 85.4072 72.4826V48.0172H72.0625ZM89.5864 85.8744C89.3127 85.8744 89.0371 85.8232 88.7723 85.7187C75.9189 80.6587 67.614 68.4773 67.614 54.6896V45.7932C67.614 44.5631 68.6082 43.5689 69.8383 43.5689H87.6315C88.8615 43.5689 89.8557 44.5631 89.8557 45.7932V72.4828C89.8557 75.9857 90.4695 79.4934 91.6816 82.9051C91.9729 83.7257 91.7572 84.6421 91.1324 85.247C90.7096 85.6565 90.1535 85.8744 89.5864 85.8744Z" fill="#F29C1F"/>
<path d="M151.593 48.0172V72.4826C151.593 74.8245 151.355 77.1644 150.881 79.4798C159.548 74.3221 164.937 65.0273 164.937 54.6896V48.0172H151.593ZM147.414 85.8744C146.846 85.8744 146.29 85.6565 145.868 85.2473C145.243 84.6423 145.027 83.726 145.319 82.9054C146.531 79.4934 147.145 75.986 147.145 72.4831V45.7932C147.145 44.5631 148.139 43.5689 149.369 43.5689H167.162C168.392 43.5689 169.386 44.5631 169.386 45.7932V54.6896C169.386 68.477 161.081 80.6587 148.228 85.7187C147.963 85.8232 147.687 85.8744 147.414 85.8744Z" fill="#F29C1F"/>
<path d="M136.293 134.759H100.707V130.31C100.707 127.855 102.7 125.862 105.155 125.862H131.845C134.3 125.862 136.293 127.855 136.293 130.31V134.759H136.293Z" fill="#F29C1F"/>
<path d="M109.604 125.862H127.397V114.741H109.604V125.862Z" fill="#F0C419"/>
<path d="M118.5 105.845C100.075 105.845 85.1379 90.9077 85.1379 72.4828V36.8965H151.862V72.4826C151.862 90.9074 136.925 105.845 118.5 105.845Z" fill="#F0C419"/>
<path d="M118.5 105.845C116.216 105.845 113.985 105.614 111.828 105.176V114.741H125.172V105.176C123.015 105.613 120.784 105.845 118.5 105.845Z" fill="#F29C1F"/>
<path d="M151.862 36.8965H85.1379C82.6823 36.8965 80.6896 34.9035 80.6896 32.4482C80.6896 29.9929 82.6826 28 85.1379 28H151.862C154.318 28 156.31 29.9929 156.31 32.4482C156.31 34.9035 154.317 36.8965 151.862 36.8965Z" fill="#F29C1F"/>
<path d="M118.5 48L123.599 58.8634L135 61.1998L126.75 69.0607L128.4 81L118.5 75.3634L108.6 81L110.25 69.0607L102 61.1998L113.401 58.8634L118.5 48Z" fill="#F29C1F"/>
<path d="M140.741 157H96.2586V139.207C96.2586 136.751 98.2515 134.759 100.707 134.759H136.293C138.748 134.759 140.741 136.752 140.741 139.207V157H140.741Z" fill="#CB8252"/>
<path d="M131.845 141.431C130.615 141.431 129.621 142.425 129.621 143.655C129.621 144.885 130.615 145.88 131.845 145.88H140.741V141.431H131.845V141.431Z" fill="#805333"/>
<path d="M105.155 150.328C106.385 150.328 107.379 149.333 107.379 148.103C107.379 146.873 106.385 145.879 105.155 145.879H96.2586V150.327H105.155V150.328Z" fill="#805333"/>
</svg>
